:SAMPLES-PER-SECOND 30
:FULLY-SPECIFIED
:DEGREES
268
root  34.79190436 36.55284371 -14.39965766 8.373393059 -2.748400211 3.342474699
lowerback  -7.640830517 -0.5023930073 -1.597469926
upperback  -4.047359943 -0.02666600049 -4.110439777
thorax  0.1065799966 0.1845320016 -3.349430084
lowerneck  -7.462769985 -13.79950047 -10.28279972
upperneck  12.35789967 -18.99880028 12.0862999
head  7.157410145 -8.73044014 3.600949764
lclavicle  0 -4.497500157e-015 -2.743230041e-014
lhumerus  -48.44219971 31.33320045 61.85340118
lradius  -0.09599463642 -6.507048965e-006 29.87181282
lwrist  3.192251654e-007 -3.790274832e-007 -28.69739914
lhand  -4.422675145e-031 -37.02109909 -10.36310005
lfingers  90 7.125020027 -90
lthumb  94.80587906 -25.20057739 101.1698657
rclavicle  0 -4.497500157e-015 -2.743230041e-014
rhumerus  -46.29219818 -27.32679558 -34.93160248
rradius  -5.16745672e-007 2.214343908e-008 96.60630035
rwrist  0.0003490542294 -0.002273720223 177.1799469
rhand  -1.767628974e-031 2.770750046 -5.212379932
rfingers  -90 -7.125020027 -90
rthumb  -84.3074923 -10.46274531 -61.23687187
rfemur  -9.865542412 15.43158913 13.46155453
rtibia  -0.3913556039 -0.3998243213 18.41435242
rfoot  1.248293042 -20.51715088 -36.73796082
rtoes  3.793811613 19.65136151 -101.1545895
lfemur  -4.220641136 -16.85340691 -21.61444283
ltibia  5.326147079 -0.2031731308 9.839161873
lfoot  0.3320303857 -22.84569359 35.82874298
ltoes  -8.64070059 -18.10646615 -116.0570319
269
root  34.79165205 36.55214385 -14.40270341 8.344789505 -2.746669054 3.314829826
lowerback  -7.667459965 -0.5250069499 -1.601959467
upperback  -4.044209957 -0.05649119988 -4.089290142
thorax  0.1205610037 0.1695040017 -3.32723999
lowerneck  -7.48195982 -13.77149963 -10.32320023
upperneck  12.33940029 -18.95009995 12.05739975
head  7.156908512 -8.713111877 3.603394747
lclavicle  0 -4.497500157e-015 -2.743230041e-014
lhumerus  -48.49359894 31.45490074 61.78829956
lradius  -0.09438382834 -6.507048965e-006 29.85779953
lwrist  3.192251654e-007 -3.790274832e-007 -28.88960266
lhand  -4.419541843e-031 -36.96720123 -10.38029957
lfingers  90 7.125020027 -90
lthumb  94.78460285 -25.2192499 101.1139209
rclavicle  0 -4.497500157e-015 -2.743230041e-014
rhumerus  -47.21300125 -27.31319809 -35.61430359
rradius  -5.16745672e-007 2.214343908e-008 96.62819672
rwrist  0.0003490542294 -0.002273720223 177.0870819
rhand  -1.767612612e-031 2.759769917 -5.35367012
rfingers  -90 -7.125020027 -90
rthumb  -84.37934459 -10.33840874 -61.26012046
rfemur  -9.831941605 15.41549587 13.49132729
rtibia  -0.3743162155 -0.3855313957 18.39938736
rfoot  1.251814842 -20.52479935 -36.73121262
rtoes  3.789500055 19.65216168 -101.141769
lfemur  -4.256313801 -16.81524277 -21.55094528
ltibia  5.259931564 -0.1968768388 9.932189941
lfoot  0.315297246 -22.88948631 35.78691864
ltoes  -8.627379233 -18.1126513 -116.0141752
270
root  34.79151989 36.55195762 -14.40608858 8.335972786 -2.746221781 3.301937819
lowerback  -7.678589821 -0.5434019566 -1.594639778
upperback  -4.035779953 -0.08345039934 -4.066140175
thorax  0.1342259943 0.1550859958 -3.309350014
lowerneck  -7.538879871 -13.74209976 -10.31200027
upperneck  12.36120033 -18.90159988 12.00020027
head  7.152318478 -8.691159248 3.591273546
lclavicle  0 -4.497500157e-015 -2.743230041e-014
lhumerus  -48.49700165 31.45339966 61.82500076
lradius  -0.09275623411 -6.507048965e-006 29.87690163
lwrist  3.192251654e-007 -3.790274832e-007 -28.82929993
lhand  -4.421278997e-031 -36.99710083 -10.40019989
lfingers  90 7.125020027 -90
lthumb  94.80267051 -25.23774187 101.1475836
rclavicle  0 -4.497500157e-015 -2.743230041e-014
rhumerus  -47.99219894 -27.28260231 -36.22849655
rradius  -5.16745672e-007 2.214343908e-008 96.66470337
rwrist  0.0003490542294 -0.002273720223 177.2540741
rhand  -1.767943699e-031 2.974050045 -5.416100025
rfingers  -90 -7.125020027 -90
rthumb  -84.35617278 -10.29343166 -61.05545454
rfemur  -9.864632607 15.47389984 13.51439667
rtibia  -0.3816223741 -0.3245565891 18.4611969
rfoot  1.236111999 -20.43209267 -36.75450134
rtoes  3.805782822 19.64913484 -101.1901887
lfemur  -4.227231979 -16.82772446 -21.54423714
ltibia  5.263120651 -0.1920707077 9.899104118
lfoot  0.3009811044 -22.87789536 35.80407715
ltoes  -8.64716539 -18.10346021 -116.0778352
271
root  34.7915289 36.5512127 -14.40868828 8.320885658 -2.74695015 3.302135229
lowerback  -7.714159966 -0.5653120279 -1.586490035
upperback  -4.021989822 -0.1142650023 -4.038310051
thorax  0.1667809933 0.1386809945 -3.287460089
lowerneck  -7.557159901 -13.71930027 -10.34140015
upperneck  12.34519958 -18.86120033 11.96930027
head  7.146860123 -8.678070068 3.585839987
lclavicle  0 -4.497500157e-015 -2.743230041e-014
lhumerus  -48.49209976 31.43899918 61.87210083
lradius  -0.09107648581 -6.507048965e-006 29.92000008
lwrist  3.192251654e-007 -3.790274832e-007 -28.72680092
lhand  -4.420616235e-031 -36.9856987 -10.42650032
lfingers  90 7.125020027 -90
lthumb  94.80301312 -25.26397725 101.1378152
rclavicle  0 -4.497500157e-015 -2.743230041e-014
rhumerus  -48.6792984 -27.28360176 -36.8809967
rradius  -5.16745672e-007 2.214343908e-008 96.56269836
rwrist  0.0003490542294 -0.002273720223 177.5189972
rhand  -1.768131753e-031 3.089119911 -4.974460125
rfingers  -90 -7.125020027 -90
rthumb  -84.10892776 -10.68472188 -60.90292682
rfemur  -9.873289108 15.48616314 13.51937008
rtibia  -0.3863042593 -0.3104659021 18.50111771
rfoot  1.20821619 -20.43115807 -36.78738785
rtoes  3.786257412 19.65276285 -101.1321273
lfemur  -4.276471615 -16.91100883 -21.52464867
ltibia  5.201512337 -0.2400677055 9.993390083
lfoot  0.2592181861 -22.80428696 35.76874542
ltoes  -8.647391629 -18.10335497 -116.0785632
272
root  34.79188634 36.55044075 -14.41167546 8.304105759 -2.748744249 3.290384531
lowerback  -7.744930267 -0.5797500014 -1.577550173
upperback  -4.011360168 -0.1343369931 -4.022520065
thorax  0.1938650012 0.1279679984 -3.277750015
lowerneck  -7.588870049 -13.69709969 -10.31190014
upperneck  12.34420013 -18.82629967 11.92840004
head  7.140739918 -8.662779808 3.572030067
lclavicle  0 -4.497500157e-015 -2.743230041e-014
lhumerus  -48.50889969 31.44799995 61.8893013
lradius  -0.08935334533 -6.507048965e-006 29.97629929
lwrist  3.192251654e-007 -3.790274832e-007 -28.68260002
lhand  -4.420796467e-031 -36.98880005 -10.47949982
lfingers  90 7.125020027 -90
lthumb  94.81579573 -25.31592275 101.1459791
rclavicle  0 -4.497500157e-015 -2.743230041e-014
rhumerus  -49.4054985 -27.32599831 -37.5286026
rradius  -5.16745672e-007 2.214343908e-008 96.40170288
rwrist  0.0003490542294 -0.002273720223 177.5039978
rhand  -0 2.977999926 -4.927360058
rfingers  -90 -7.125020027 -90
rthumb  -84.11441704 -10.72123274 -61.00774743
rfemur  -9.866230965 15.51150703 13.5334444
rtibia  -0.3866250217 -0.2876898944 18.50714684
rfoot  1.210327029 -20.39507675 -36.78966904
rtoes  3.775744678 19.65470817 -101.1008705
lfemur  -4.273682594 -16.80561829 -21.4976368
ltibia  5.189537525 -0.1845709085 9.995560646
lfoot  0.2755222023 -22.93201256 35.76529312
ltoes  -8.665291673 -18.09501701 -116.1361821
273
root  34.79206656 36.54915216 -14.41424963 8.272696495 -2.751495123 3.273803949
lowerback  -7.777579784 -0.6013119221 -1.557479739
upperback  -4.014349937 -0.1642850041 -4.001259804
thorax  0.2074110061 0.1125409976 -3.269469976
lowerneck  -7.583710194 -13.67269993 -10.35459995
upperneck  12.3135004 -18.78210068 11.89540005
head  7.125500202 -8.649530411 3.574650049
lclavicle  0 -4.497500157e-015 -2.743230041e-014
lhumerus  -48.51860046 31.4279995 61.93450165
lradius  -0.08761513978 -6.507048965e-006 29.9871006
lwrist  3.192251654e-007 -3.790274832e-007 -28.57180023
lhand  -4.420465287e-031 -36.98310089 -10.44009972
lfingers  90 7.125020027 -90
lthumb  94.8047209 -25.27743256 101.1362918
rclavicle  0 -4.497500157e-015 -2.743230041e-014
rhumerus  -49.97029877 -27.2602005 -38.2098999
rradius  -5.16745672e-007 2.214343908e-008 96.20030212
rwrist  0.0003490542294 -0.002273720223 177.7618103
rhand  -1.767818571e-031 2.894939899 -4.727600098
rfingers  -90 -7.125020027 -90
rthumb  -84.03753935 -10.89259298 -61.07081049
rfemur  -9.809994698 15.51966572 13.54829502
rtibia  -0.371237576 -0.2968741655 18.45713234
rfoot  1.213279843 -20.42198563 -36.82182693
rtoes  3.796305749 19.6508982 -101.162006
lfemur  -4.232462406 -16.7895298 -21.49061012
ltibia  5.186400414 -0.1789474785 9.996864319
lfoot  0.2825843096 -22.95389175 35.78436661
ltoes  -8.605122327 -18.12295863 -115.9426031
274
root  34.79230085 36.54925129 -14.41735545 8.273210526 -2.757261276 3.269818544
lowerback  -7.798999786 -0.62263906 -1.543020487
upperback  -4.002989769 -0.1952199936 -3.978919983
thorax  0.2295909971 0.09600619972 -3.256910086
lowerneck  -7.586090088 -13.63490009 -10.30760002
upperneck  12.29650021 -18.72400093 11.82769966
head  7.102089882 -8.626589775 3.555759907
lclavicle  0 -4.497500157e-015 -2.743230041e-014
lhumerus  -48.53279877 31.48940086 61.92179871
lradius  -0.08586321771 -6.507048965e-006 29.97657394
lwrist  3.192251654e-007 -3.790274832e-007 -28.6093998
lhand  -4.420012115e-031 -36.97529984 -10.47980022
lfingers  90 7.125020027 -90
lthumb  94.80958244 -25.31662039 101.1316125
rclavicle  0 -4.497500157e-015 -2.743230041e-014
rhumerus  -50.67399979 -27.35270119 -38.96299744
rradius  -5.16745672e-007 2.214343908e-008 95.83300018
rwrist  0.0003490542294 -0.002273720223 177.6060028
rhand  -1.767642733e-031 2.779949903 -4.778379917
rfingers  -90 -7.125020027 -90
rthumb  -84.09244834 -10.84353561 -61.1885152
rfemur  -9.806224823 15.49441242 13.5452919
rtibia  -0.3674362898 -0.3224442601 18.43989372
rfoot  1.217077494 -20.4705925 -36.81586456
rtoes  3.813727047 19.64765315 -101.2138148
lfemur  -4.366463184 -16.81682396 -21.42705345
ltibia  5.077264309 -0.1820973009 10.19199085
lfoot  0.2864778638 -23.02920341 35.76975632
ltoes  -8.604701986 -18.12315297 -115.9412518
275
root  34.79326203 36.54929334 -14.42168378 8.270266533 -2.779690504 3.261914015
lowerback  -7.828960419 -0.643056035 -1.533370137
upperback  -3.997400045 -0.223973006 -3.953649998
thorax  0.2506839931 0.08088319749 -3.238500118
lowerneck  -7.57407999 -13.59469986 -10.38710022
upperneck  12.29380035 -18.66139984 11.83259964
head  7.100190163 -8.602000237 3.577630043
lclavicle  0 -4.497500157e-015 -2.743230041e-014
lhumerus  -48.5644989 31.49259949 61.92160034
lradius  -0.08409892768 -6.507048965e-006 29.98509979
lwrist  3.192251654e-007 -3.790274832e-007 -28.58099937
lhand  -4.419286297e-031 -36.96279907 -10.48649979
lfingers  90 7.125020027 -90
lthumb  94.80524846 -25.32371034 101.1189499
rclavicle  0 -4.497500157e-015 -2.743230041e-014
rhumerus  -51.19100189 -27.32250023 -39.81909943
rradius  -5.16745672e-007 2.214343908e-008 95.66590118
rwrist  0.0003490542294 -0.002273720223 178.0809937
rhand  -1.767866774e-031 2.925669909 -4.878419876
rfingers  -90 -7.125020027 -90
rthumb  -84.10383778 -10.76188468 -61.05464127
rfemur  -9.809784889 15.49002457 13.54341125
rtibia  -0.3644518256 -0.3273751438 18.43210602
rfoot  1.222567797 -20.47831535 -36.8000412
rtoes  3.830610922 19.64449344 -101.2640332
lfemur  -4.435889721 -16.79062271 -21.387043
ltibia  5.013839245 -0.1778196394 10.29662895
lfoot  0.2883515656 -23.08222008 35.74766159
ltoes  -8.584405163 -18.13252298 -115.8760177
